<?xml version="1.0" encoding="UTF-8" standalone="no"?>
<svg
   xmlns:dc="http://purl.org/dc/elements/1.1/"
   xmlns:cc="http://creativecommons.org/ns#"
   xmlns:rdf="http://www.w3.org/1999/02/22-rdf-syntax-ns#"
   xmlns:svg="http://www.w3.org/2000/svg"
   xmlns="http://www.w3.org/2000/svg"
   xmlns:sodipodi="http://sodipodi.sourceforge.net/DTD/sodipodi-0.dtd"
   xmlns:inkscape="http://www.inkscape.org/namespaces/inkscape"
   inkscape:version="1.0 (4035a4f, 2020-05-01)"
   sodipodi:docname="critical.svg"
   id="svg839"
   version="1.1"
   viewBox="0 0 78.4000015 78.5999985"
   style="enable-background:new 0 0 78.4000015 78.5999985;"
   xml:space="preserve"><metadata
     id="metadata845"><rdf:RDF><cc:Work
         rdf:about=""><dc:format>image/svg+xml</dc:format><dc:type
           rdf:resource="http://purl.org/dc/dcmitype/StillImage" /><dc:title></dc:title></cc:Work></rdf:RDF></metadata><defs
     id="defs843" /><sodipodi:namedview
     inkscape:current-layer="svg839"
     inkscape:window-maximized="0"
     inkscape:window-y="23"
     inkscape:window-x="0"
     inkscape:cy="39.299999"
     inkscape:cx="39.200001"
     inkscape:zoom="8.520408"
     showgrid="false"
     id="namedview841"
     inkscape:window-height="1043"
     inkscape:window-width="2035"
     inkscape:pageshadow="2"
     inkscape:pageopacity="0"
     guidetolerance="10"
     gridtolerance="10"
     objecttolerance="10"
     borderopacity="1"
     bordercolor="#666666"
     pagecolor="#ffffff" /><g
     style="fill:#f33b2e;fill-opacity:1"
     id="g835"><path
       style="fill:#f33b2e;fill-opacity:1"
       id="path833"
       d="M78.4000015,51.5c0,0,0,4.0999985-2.9000015,7L58.2999992,75.6999969c0,0-2.9000015,2.9000015-7,2.9000015H27                 c0,0-4.1000004,0-7-2.9000015L2.9000001,58.5C2.9000001,58.5,0,55.5999985,0,51.5V27.1000004c0,0,0-4.1000004,2.9000001-7                 L20.1000004,2.9000001c0,0,2.8999996-2.9000001,7-2.9000001h24.3000011c0,0,4.0999985,0,7,2.9000001L75.5,20.1000004                 c0,0,2.9000015,2.8999996,2.9000015,7V51.5L78.4000015,51.5z"
       class="alert-critical-icon" /></g><path
     style="fill:#ffffff;fill-opacity:1"
     id="path837"
     d="M54.7000008,49.2999992l-10-10l10-10c1.5-1.5,1.5-3.8999996,0.0999985-5.6000004l-0.0999985-0.1000004             c-1.5-1.5-4.2000008-1.5-5.7000008,0l-10,10l-9.8999996-9.8999996c-1.5-1.5-4.1999989-1.5-5.6999989,0s-1.5,4.1000004,0,5.6999989             l9.9000015,9.8999977l-9.8999996,9.9000015c-1.5,1.5-1.5,4.0999985,0,5.7000008c1,1,2,1.0999985,2.7999992,1.0999985             c1.2000008,0,2.1000004-0.5999985,2.7000008-1l9.9999981-10l10,10c1,1,2,1.0999985,2.7999992,1.0999985             c1.2000008,0,2.0999985-0.5999985,2.7000008-1l0.2000008-0.0999985c0.7000008-0.7000008,1.2000008-1.7999992,1.2000008-2.7999992             S55.5,50,54.7000008,49.2999992z"
     class="alert-critical-icon-inner" /></svg>
