<?xml version="1.0" encoding="utf-8"?>
<!-- Generator: Adobe Illustrator 19.2.1, SVG Export Plug-In . SVG Version: 6.00 Build 0)  -->
<svg version="1.1" id="Layer_1" xmlns="http://www.w3.org/2000/svg" xmlns:xlink="http://www.w3.org/1999/xlink" x="0px" y="0px"
	 viewBox="0 0 93 93.1" style="enable-background:new 0 0 93 93.1;" xml:space="preserve">
<style type="text/css">
	.st0{fill:#FF551B;}
	.st1{fill:#7E7E7E;}
</style>
<path class="st0" d="M63.4,39.6c-1.8,0-3.5,1.2-3.9,2.9l-6,16.6l-6.2-38.6c-0.4-1.9-1.9-3.3-3.9-3.4c-1.9,0-3.5,1.1-4.1,2.8
	L28.7,39.6H0v8.3h31.6c1.8,0,3.4-1.2,3.9-2.8l5.7-11.2L47.7,72c0.4,1.9,2,3.3,3.9,3.4l0.1,0c1.8,0,3.4-1.2,3.9-2.9l10.6-24.7H93
	v-8.3H63.4z"/>
<g>
	<g>
		<path class="st1" d="M80.5,54.7c-3.7,15.2-17.3,26.5-33.6,26.5S17,69.8,13.3,54.7H1.1C4.9,76.5,24,93.1,46.9,93.1
			c22.9,0,42-16.6,45.8-38.5H80.5z"/>
	</g>
	<g>
		<path class="st1" d="M14.9,33.7C20,21,32.4,12,46.9,12s26.9,9,32,21.7h12.7C86.1,14.3,68.1,0,46.9,0C25.7,0,7.8,14.3,2.2,33.7
			H14.9z"/>
	</g>
</g>
</svg>
