<?xml version="1.0" encoding="utf-8"?>
<!-- Generator: Adobe Illustrator 19.2.1, SVG Export Plug-In . SVG Version: 6.00 Build 0)  -->
<svg version="1.1" id="Layer_1" xmlns="http://www.w3.org/2000/svg" xmlns:xlink="http://www.w3.org/1999/xlink" x="0px" y="0px"
     viewBox="0 0 78.3 90.6" style="enable-background:new 0 0 78.3 90.6;" xml:space="preserve">
<style type="text/css">
	.st0{fill:#7E7E7E;}
	.st1{fill:#FF551B;}
</style>
    <g>
	<path class="st0" d="M39.2,90.6c-1.4,0-2.7-0.4-3.9-1.1C28.2,85.3,22,80.1,16.9,74C-3.8,49.2-0.2,24.9,1,16.9c0.4-3,3-5.2,6-5.3
		c5.7-0.1,11.3-1.2,16.5-3.3c4.2-1.7,8.1-4,11.7-6.9c2.3-1.9,5.6-1.9,7.9,0c3.5,2.9,7.5,5.2,11.7,6.9c5.3,2.1,10.8,3.2,16.5,3.3
		c3.1,0,5.6,2.3,6,5.3c4.8,32.3-10.8,51-15.9,57.1c-5.1,6.1-11.3,11.4-18.3,15.5C41.9,90.3,40.5,90.6,39.2,90.6z M8.7,19.6
		c-1.2,8.8-3,28.5,14.4,49.3c4.5,5.4,9.9,10,16.1,13.7c6.2-3.7,11.6-8.3,16.1-13.7c17.3-20.8,15.6-40.5,14.4-49.3
		c-6.2-0.3-12.2-1.5-17.8-3.8c-4.5-1.8-8.8-4.3-12.6-7.2c-3.9,3-8.1,5.4-12.6,7.2C20.8,18,14.8,19.3,8.7,19.6z"/>
</g>
    <path class="st1" d="M58.5,31.9L39,58.2l-0.1,0.2c-1.5,2-4.3,2.4-6.3,0.9c-0.2-0.2-0.4-0.3-0.6-0.5L21.6,47.9
	c-1.3-1.4-1.3-3.6,0.1-4.9c1.2-1.2,3-1.3,4.4-0.3l8.4,5.9l19-20.8c1.2-1.3,3.2-1.4,4.5-0.2C59.3,28.7,59.4,30.6,58.5,31.9z"/>
</svg>