<?xml version="1.0" encoding="UTF-8" standalone="no"?>
<svg
   xmlns:dc="http://purl.org/dc/elements/1.1/"
   xmlns:cc="http://creativecommons.org/ns#"
   xmlns:rdf="http://www.w3.org/1999/02/22-rdf-syntax-ns#"
   xmlns:svg="http://www.w3.org/2000/svg"
   xmlns="http://www.w3.org/2000/svg"
   xmlns:sodipodi="http://sodipodi.sourceforge.net/DTD/sodipodi-0.dtd"
   xmlns:inkscape="http://www.inkscape.org/namespaces/inkscape"
   height="73.599998"
   width="73.599998"
   inkscape:version="1.0 (4035a4f, 2020-05-01)"
   sodipodi:docname="pso_gui_logo.svg"
   id="svg837"
   version="1.1"
   viewBox="0 0 73.6 73.6"
   y="0px"
   x="0px">
  <metadata
     id="metadata843">
    <rdf:RDF>
      <cc:Work
         rdf:about="">
        <dc:format>image/svg+xml</dc:format>
        <dc:type
           rdf:resource="http://purl.org/dc/dcmitype/StillImage" />
        <dc:title />
      </cc:Work>
    </rdf:RDF>
  </metadata>
  <defs
     id="defs841">
    <marker
       inkscape:isstock="true"
       style="overflow:visible"
       id="marker1567"
       refX="0"
       refY="0"
       orient="auto"
       inkscape:stockid="Arrow1Mend">
      <path
         transform="matrix(-0.4,0,0,-0.4,-4,0)"
         style="fill:#000000;fill-opacity:1;fill-rule:evenodd;stroke:#000000;stroke-width:1pt;stroke-opacity:1"
         d="M 0,0 5,-5 -12.5,0 5,5 Z"
         id="path1565" />
    </marker>
    <marker
       inkscape:isstock="true"
       style="overflow:visible"
       id="Arrow1Send"
       refX="0"
       refY="0"
       orient="auto"
       inkscape:stockid="Arrow1Send">
      <path
         transform="matrix(-0.2,0,0,-0.2,-1.2,0)"
         style="fill:#5e5e5e;fill-opacity:1;fill-rule:evenodd;stroke:#5e5e5e;stroke-width:1pt;stroke-opacity:1"
         d="M 0,0 5,-5 -12.5,0 5,5 Z"
         id="path864" />
    </marker>
    <marker
       inkscape:isstock="true"
       style="overflow:visible"
       id="Arrow2Send"
       refX="0"
       refY="0"
       orient="auto"
       inkscape:stockid="Arrow2Send">
      <path
         transform="matrix(-0.3,0,0,-0.3,0.69,0)"
         d="M 8.7185878,4.0337352 -2.2072895,0.01601326 8.7185884,-4.0017078 c -1.7454984,2.3720609 -1.7354408,5.6174519 -6e-7,8.035443 z"
         style="fill:#000000;fill-opacity:1;fill-rule:evenodd;stroke:#000000;stroke-width:0.625;stroke-linejoin:round;stroke-opacity:1"
         id="path882" />
    </marker>
    <marker
       inkscape:isstock="true"
       style="overflow:visible"
       id="Arrow1Mend"
       refX="0"
       refY="0"
       orient="auto"
       inkscape:stockid="Arrow1Mend">
      <path
         transform="matrix(-0.4,0,0,-0.4,-4,0)"
         style="fill:#000000;fill-opacity:1;fill-rule:evenodd;stroke:#000000;stroke-width:1pt;stroke-opacity:1"
         d="M 0,0 5,-5 -12.5,0 5,5 Z"
         id="path858" />
    </marker>
    <marker
       inkscape:isstock="true"
       style="overflow:visible"
       id="Arrow1Lend"
       refX="0"
       refY="0"
       orient="auto"
       inkscape:stockid="Arrow1Lend">
      <path
         transform="matrix(-0.8,0,0,-0.8,-10,0)"
         style="fill:#000000;fill-opacity:1;fill-rule:evenodd;stroke:#000000;stroke-width:1pt;stroke-opacity:1"
         d="M 0,0 5,-5 -12.5,0 5,5 Z"
         id="path852" />
    </marker>
    <marker
       inkscape:stockid="Arrow2Send"
       orient="auto"
       refY="0"
       refX="0"
       id="Arrow2Send-3"
       style="overflow:visible"
       inkscape:isstock="true">
      <path
         id="path882-9"
         style="fill:#787878;fill-opacity:1;fill-rule:evenodd;stroke:#787878;stroke-width:0.625;stroke-linejoin:round;stroke-opacity:1"
         d="M 8.7185878,4.0337352 -2.2072895,0.01601326 8.7185884,-4.0017078 c -1.7454984,2.3720609 -1.7354408,5.6174519 -6e-7,8.035443 z"
         transform="matrix(-0.3,0,0,-0.3,0.69,0)" />
    </marker>
    <marker
       inkscape:isstock="true"
       style="overflow:visible"
       id="Arrow2Send-3-7"
       refX="0"
       refY="0"
       orient="auto"
       inkscape:stockid="Arrow2Send">
      <path
         transform="matrix(-0.3,0,0,-0.3,0.69,0)"
         d="M 8.7185878,4.0337352 -2.2072895,0.01601326 8.7185884,-4.0017078 c -1.7454984,2.3720609 -1.7354408,5.6174519 -6e-7,8.035443 z"
         style="fill:#000000;fill-opacity:1;fill-rule:evenodd;stroke:#000000;stroke-width:0.625;stroke-linejoin:round;stroke-opacity:1"
         id="path882-9-8" />
    </marker>
  </defs>
  <sodipodi:namedview
     inkscape:current-layer="svg837"
     inkscape:window-maximized="0"
     inkscape:window-y="98"
     inkscape:window-x="378"
     inkscape:cy="61.701001"
     inkscape:cx="46.254638"
     inkscape:zoom="4.1222587"
     inkscape:snap-intersection-paths="true"
     showgrid="false"
     id="namedview839"
     inkscape:window-height="1100"
     inkscape:window-width="1812"
     inkscape:pageshadow="2"
     inkscape:pageopacity="0"
     guidetolerance="10"
     gridtolerance="10"
     objecttolerance="10"
     borderopacity="1"
     bordercolor="#666666"
     pagecolor="#ffffff"
     inkscape:document-rotation="0" />
  <style
     id="style833"
     type="text/css">
        .pure-logo-bug{fill:#FE5000;}
    </style>
  <path
     id="path835"
     d="m 37.68517,68.298095 h -15.4 c -3.2,0 -6.1,-1.7 -7.7,-4.5 l -12.899999,-22.3 c -1.60000004,-2.7 -1.60000004,-6.2 0,-8.9 L 14.58517,10.198098 c 1.6,-2.7999995 4.6,-4.4999995 7.7,-4.4999995 h 25.9 c 3.2,0 6.1,1.7 7.7,4.4999995 l 12.9,22.399997 c 1.6,2.7 1.6,6.2 0,8.9 l -3.3,5.3 c -1.6,2.7 -4.5,4.4 -7.7,4.4 h -15.4 l 8.4,-14.2 -7.8,-13.5 h -15.5 l -7.8,13.5 z"
     class="pure-logo-bug" />
  <path
     id="path1561"
     d="M 6.1687582,60.073304 23.208761,49.991149"
     style="fill:none;stroke:#787878;stroke-width:5.66929134;stroke-linecap:round;stroke-linejoin:miter;stroke-miterlimit:4;stroke-dasharray:none;stroke-opacity:1" />
  <path
     id="path1685"
     d="M 26.741457,49.264571 V 30.900499"
     style="mix-blend-mode:normal;fill:#6c5353;fill-opacity:1;stroke:#b6b6b6;stroke-width:6.51591;stroke-linecap:butt;stroke-linejoin:miter;stroke-miterlimit:4;stroke-dasharray:none;stroke-opacity:1;opacity:1" />
  <path
     id="path1687"
     d="M 35.481578,52.7017 V 27.365173"
     style="fill:#fe5000;stroke:#ff5e00;stroke-width:6.515;stroke-linecap:butt;stroke-linejoin:miter;stroke-miterlimit:4;stroke-dasharray:none;stroke-opacity:1;fill-opacity:1" />
  <path
     id="path1689"
     d="M 44.418104,56.138827 V 36.792719"
     style="fill:none;stroke:#787878;stroke-width:6.515;stroke-linecap:butt;stroke-linejoin:miter;stroke-miterlimit:4;stroke-dasharray:none;stroke-opacity:1" />
  <path
     id="path1691"
     d="m 23.849532,46.654861 23.781476,8.977505"
     style="fill:none;stroke:#ffffff;stroke-width:0.582047;stroke-linecap:round;stroke-linejoin:miter;stroke-miterlimit:4;stroke-dasharray:none;stroke-opacity:1" />
  <path
     id="path1563"
     d="M 23.330672,49.925639 47.685163,59.156776 65.754624,48.943603"
     style="fill:none;stroke:#787878;stroke-width:5.66929134;stroke-linecap:round;stroke-linejoin:round;stroke-miterlimit:4;stroke-dasharray:none;stroke-opacity:1;marker-end:url(#Arrow2Send-3);fill-opacity:1" />
</svg>
