<?xml version="1.0" encoding="utf-8"?>
<!-- Generator: Adobe Illustrator 19.2.1, SVG Export Plug-In . SVG Version: 6.00 Build 0)  -->
<svg version="1.1" id="Layer_1" xmlns="http://www.w3.org/2000/svg" xmlns:xlink="http://www.w3.org/1999/xlink" x="0px" y="0px"
	 viewBox="0 0 91.6 91.7" style="enable-background:new 0 0 91.6 91.7;" xml:space="preserve">
<style type="text/css">
	.st0{fill:#7E7E7E;}
	.st1{fill:#FF551B;}
</style>
<path class="st0" d="M38.4,87.7l0.1-5.7c-5.1-1-9.8-3.1-13.8-6l-4.1,4c-1.5,1.5-4,1.5-5.5-0.1l-4.2-4.3c-1.5-1.5-1.5-4,0.1-5.5
	l4.1-4c-2.7-4.2-4.7-8.9-5.5-14l-5.8,0.1c-2.1,0-3.8-1.8-3.8-3.9l0.1-6c0-2.1,1.8-3.8,3.9-3.8l5.4,0.1c3.8,2.4,8.3,3.5,12.9,3.2
	c1.2-0.1,2.3,0.3,3,1.1l0.7,0.7c-0.1,0.7-0.1,1.4-0.1,2.1c-0.1,11,8.7,20.1,19.7,20.2c0.9,0,1.8,0,2.6-0.1l0.2,0.2
	c0.8,0.8,1.2,2,1.1,3.3C49,74,50,78.5,52.3,82.5l-0.2,5.4c0,2.1-1.8,3.8-3.9,3.8l-6-0.1C40.1,91.6,38.3,89.9,38.4,87.7z"/>
<path class="st0" d="M80.7,16.1l-4.2-4.3c-1.5-1.5-3.9-1.6-5.5-0.1l-4.2,4.1c-4-2.8-8.7-4.9-13.7-5.9L53.2,4c0-2.1-1.7-3.9-3.8-3.9
	l-6-0.1c-2.1,0-3.9,1.7-3.9,3.8l-0.1,5.6c2.3,3.9,3.3,8.5,2.8,13.2c-0.1,1.3,0.3,2.4,1.1,3.3l0.2,0.2c0.9-0.1,1.7-0.1,2.6-0.1
	c11,0.1,19.8,9.2,19.7,20.2c0,0.7-0.1,1.4-0.1,2.1l0.7,0.7c0.8,0.8,1.9,1.2,3,1.1c4.6-0.3,9.1,0.8,12.9,3.2l5.4,0.1
	c2.1,0,3.9-1.7,3.9-3.8l0.1-6c0-2.1-1.7-3.9-3.8-3.9l-5.8-0.1c-0.9-5.1-2.8-9.8-5.6-13.9l4.2-4.1C82.2,20.1,82.2,17.6,80.7,16.1z"/>
<path class="st1" d="M70,67.4c1.9-1.9,4.8-1.9,6.6,0l4,4c1.2,1.2,3.3,0.4,3.3-1.4c0.1-4-1.4-8-4.3-10.9c-3.1-3.1-7.4-4.6-11.6-4.3
	c-2.5,0.2-4.9-0.6-6.6-2.4L49.9,40.7l0,0L40,30.9c-1.9-1.9-2.7-4.4-2.4-7c0.5-4.3-0.9-8.9-4.3-12.2C30,8.2,25.5,6.9,21.1,7.3
	c-1.7,0.2-2.3,2.2-1.1,3.3l4.4,4.4c1.9,1.9,1.8,4.7,0,6.6l-2.8,2.8c-1.9,1.9-4.8,1.9-6.6,0l-4-4c-1.2-1.2-3.3-0.4-3.3,1.4
	c-0.1,4,1.4,8,4.3,10.9c3.1,3.1,7.4,4.6,11.6,4.3c2.5-0.2,4.9,0.6,6.6,2.4L41.7,51l0,0l9.8,9.8c1.9,1.9,2.7,4.4,2.4,7
	c-0.5,4.3,0.9,8.9,4.3,12.2s7.9,4.7,12.2,4.3c1.7-0.2,2.3-2.2,1.1-3.3l-4.4-4.4c-1.9-1.9-1.8-4.7,0-6.6L70,67.4z"/>
</svg>
