<?xml version="1.0" encoding="UTF-8" standalone="no"?>
<svg
   xmlns:dc="http://purl.org/dc/elements/1.1/"
   xmlns:cc="http://creativecommons.org/ns#"
   xmlns:rdf="http://www.w3.org/1999/02/22-rdf-syntax-ns#"
   xmlns:svg="http://www.w3.org/2000/svg"
   xmlns="http://www.w3.org/2000/svg"
   xmlns:sodipodi="http://sodipodi.sourceforge.net/DTD/sodipodi-0.dtd"
   xmlns:inkscape="http://www.inkscape.org/namespaces/inkscape"
   inkscape:version="1.0 (4035a4f, 2020-05-01)"
   sodipodi:docname="warning.svg"
   id="svg839"
   version="1.1"
   viewBox="0 0 86.5999985 78.5"
   style="enable-background:new 0 0 86.5999985 78.5;"
   xml:space="preserve"><metadata
     id="metadata845"><rdf:RDF><cc:Work
         rdf:about=""><dc:format>image/svg+xml</dc:format><dc:type
           rdf:resource="http://purl.org/dc/dcmitype/StillImage" /><dc:title></dc:title></cc:Work></rdf:RDF></metadata><defs
     id="defs843" /><sodipodi:namedview
     inkscape:current-layer="svg839"
     inkscape:window-maximized="0"
     inkscape:window-y="23"
     inkscape:window-x="0"
     inkscape:cy="51.565868"
     inkscape:cx="42.392514"
     inkscape:zoom="7.713626"
     showgrid="false"
     id="namedview841"
     inkscape:window-height="1078"
     inkscape:window-width="1796"
     inkscape:pageshadow="2"
     inkscape:pageopacity="0"
     guidetolerance="10"
     gridtolerance="10"
     objecttolerance="10"
     borderopacity="1"
     bordercolor="#666666"
     pagecolor="#ffffff" /><path
     style="fill:#fac13a;fill-opacity:1"
     id="path833"
     d="M72.5999985,78.4000015H13.8999996c-5.9000001,0-10.3999996-2.0999985-12.5-5.9000015             c-2.2-3.8000031-1.8-8.7000008,1.2-13.7999992L31.8999996,7.9000001C34.9000015,2.8000002,38.9000015,0,43.2999992,0             s8.3999977,2.8,11.3999977,7.9000001L84,58.7000008C87,63.7999992,87.4000015,68.6999969,85.1999969,72.5             C82.9000015,76.3000031,78.5,78.4000015,72.5999985,78.4000015z"
     class="alert-warning-icon" /><circle
     style="fill:#ffffff;fill-opacity:1"
     id="circle835"
     r="5.5"
     cy="60.5999985"
     cx="43.7000008"
     class="alert-warning-icon-inner" /><path
     style="fill:#ffffff;fill-opacity:1"
     id="path837"
     d="M49.4000015,27.2999992c0-3.1000004-2.5-5.7000008-5.7000008-5.7000008             c-3.0999985,0-5.7000008,2.5-5.7000008,5.7000008l1.2999992,20.1000023l0,0c0.2000008,2.2000008,2,4,4.2999992,4             c2.0999985,0,3.9000015-1.5,4.2999992-3.5c0-0.2000008,0-0.2999992,0-0.5l0,0L49.4000015,27.2999992z"
     class="alert-warning-icon-inner" /></svg>
