<?xml version="1.0" encoding="utf-8"?>
<!-- Generator: Adobe Illustrator 19.2.1, SVG Export Plug-In . SVG Version: 6.00 Build 0)  -->
<svg version="1.1" id="Layer_1" xmlns="http://www.w3.org/2000/svg" xmlns:xlink="http://www.w3.org/1999/xlink" x="0px" y="0px"
	 viewBox="0 0 91.8 103" style="enable-background:new 0 0 91.8 103;" xml:space="preserve">
<style type="text/css">
	.st0{fill:#7E7E7E;}
	.st1{fill:#FF551B;}
</style>
<path class="st0" d="M91.8,24.2L91.8,24.2c0-0.1,0-0.3,0-0.4l0-0.2c0-0.1-0.1-0.3-0.1-0.4l0-0.1c-0.1-0.2-0.1-0.4-0.2-0.6l-0.1-0.1
	c0-0.1-0.1-0.2-0.1-0.3l-0.2-0.3c-0.1-0.1-0.2-0.3-0.3-0.5c-0.1-0.1-0.3-0.3-0.3-0.4L90.2,21c-0.1-0.1-0.3-0.2-0.4-0.3l-0.1-0.1
	c-0.1-0.1-0.3-0.2-0.4-0.3L47.9,0.5c-1.3-0.6-2.7-0.6-4,0L2.6,20.3l-0.1,0c-0.2,0.1-0.3,0.2-0.4,0.2L2,20.7
	c-0.1,0.1-0.3,0.2-0.4,0.3L1.5,21c-0.1,0.1-0.3,0.3-0.4,0.4L1,21.6c-0.1,0.1-0.2,0.2-0.3,0.4l-0.2,0.3c0,0.1-0.1,0.2-0.1,0.3
	l-0.1,0.1c-0.1,0.2-0.2,0.4-0.2,0.5l0,0.1c0,0.2-0.1,0.3-0.1,0.5l0,0.1c0,0.2,0,0.4,0,0.6v51c0,1.7,0.9,3.2,2.4,4L42.9,102l0.5,0.3
	l0.7,0.3c0.1,0,0.1,0.1,0.2,0.1c0.1,0.1,0.3,0.1,0.4,0.1l0.2,0.1c0.1,0,0.2,0,0.4,0.1l0.1,0c0.2,0,0.4,0,0.5,0c0.2,0,0.4,0,0.5,0
	l0.2,0c0.1,0,0.3,0,0.3-0.1l0.2,0c0.1,0,0.3-0.1,0.5-0.2c0,0,0.1,0,0.1-0.1l0.3-0.1l0.3-0.2l41.1-22.8c1.5-0.8,2.4-2.4,2.4-4v-51
	L91.8,24.2z M89.9,22.8C89.9,22.8,89.9,22.8,89.9,22.8L89.9,22.8L89.9,22.8z M45.9,77.5c-2.5,0-4.6,2.1-4.6,4.6v8.4L9.2,72.8V32.3
	l8.4,4.6c0.7,0.4,1.5,0.6,2.2,0.6c1.7,0,3.2-0.9,4-2.4c0.6-1.1,0.7-2.3,0.4-3.5c-0.3-1.2-1.1-2.2-2.2-2.8l-7.4-4.1l31.3-15l31.3,15
	l-7.4,4.1c-1.1,0.6-1.9,1.6-2.2,2.8c-0.3,1.2-0.2,2.4,0.4,3.5c0.8,1.5,2.4,2.4,4,2.4c0.8,0,1.5-0.2,2.2-0.6l8.4-4.6v40.5L50.5,90.6
	v-8.5C50.5,79.6,48.5,77.5,45.9,77.5z"/>
<path class="st1" d="M41.9,22.5L31.1,51c-0.2,0.6,0.2,1.1,0.8,1.1h7.2c0.6,0,1,0.5,0.8,1.1l-6.5,24.4c-0.2,0.9,0.9,1.5,1.5,0.7
	l25.1-31.5c0.4-0.5,0.1-1.3-0.6-1.4l-11.4-0.6c-0.6,0-1-0.7-0.7-1.2l9.2-20.5c0.3-0.6-0.2-1.2-0.8-1.2H42.7
	C42.4,22,42.1,22.2,41.9,22.5z"/>
</svg>
