<?xml version="1.0" encoding="UTF-8" standalone="no"?>
<svg
   xmlns:dc="http://purl.org/dc/elements/1.1/"
   xmlns:cc="http://creativecommons.org/ns#"
   xmlns:rdf="http://www.w3.org/1999/02/22-rdf-syntax-ns#"
   xmlns:svg="http://www.w3.org/2000/svg"
   xmlns="http://www.w3.org/2000/svg"
   xmlns:sodipodi="http://sodipodi.sourceforge.net/DTD/sodipodi-0.dtd"
   xmlns:inkscape="http://www.inkscape.org/namespaces/inkscape"
   sodipodi:docname="node-pure.svg"
   inkscape:version="1.0 (4035a4f, 2020-05-01)"
   id="svg13826"
   version="1.1"
   viewBox="0 0 18.035334 17.500378"
   height="17.500378mm"
   width="18.035334mm">
  <defs
     id="defs13820" />
  <sodipodi:namedview
     inkscape:document-rotation="0"
     fit-margin-bottom="0"
     fit-margin-right="0"
     fit-margin-left="0"
     fit-margin-top="0"
     inkscape:window-maximized="0"
     inkscape:window-y="23"
     inkscape:window-x="0"
     inkscape:window-height="1435"
     inkscape:window-width="2114"
     showgrid="false"
     inkscape:current-layer="layer1"
     inkscape:document-units="mm"
     inkscape:cy="33.752239"
     inkscape:cx="16.847496"
     inkscape:zoom="8"
     inkscape:pageshadow="2"
     inkscape:pageopacity="0.0"
     borderopacity="1.0"
     bordercolor="#666666"
     pagecolor="#ffffff"
     id="base" />
  <metadata
     id="metadata13823">
    <rdf:RDF>
      <cc:Work
         rdf:about="">
        <dc:format>image/svg+xml</dc:format>
        <dc:type
           rdf:resource="http://purl.org/dc/dcmitype/StillImage" />
        <dc:title />
      </cc:Work>
    </rdf:RDF>
  </metadata>
  <g
     transform="translate(-0.99262638,-1.174181)"
     id="layer1"
     inkscape:groupmode="layer"
     inkscape:label="Calque 1">
    <g
       style="stroke:#7e7e7e;stroke-opacity:1;stroke-width:1.00010967;stroke-miterlimit:4;stroke-dasharray:none;fill:#fe5000;fill-opacity:1"
       transform="matrix(1.0148887,0,0,1.0148887,16.902146,-2.698726)"
       id="g70">
      <path
         style="fill:#fe5000;fill-opacity:1;stroke:#7e7e7e;stroke-width:1.00010967;stroke-miterlimit:4;stroke-dasharray:none;stroke-opacity:1"
         d="m -6.8492015,4.2724668 a 1.1191255,1.1099671 0 0 0 -0.4288818,0.1085303 l -5.8524037,2.7963394 a 1.1191255,1.1099671 0 0 0 -0.605524,0.7529759 l -1.443828,6.2812846 a 1.1191255,1.1099671 0 0 0 0.151943,0.851028 1.1191255,1.1099671 0 0 0 0.06362,0.08832 l 4.0508,5.036555 a 1.1191255,1.1099671 0 0 0 0.874979,0.417654 l 6.4961011,-0.0015 a 1.1191255,1.1099671 0 0 0 0.8749788,-0.416906 L 1.3818872,15.149453 A 1.1191255,1.1099671 0 0 0 1.5981986,14.210104 L 0.15212657,7.9288154 A 1.1191255,1.1099671 0 0 0 -0.45339794,7.1758396 L -6.3065496,4.3809971 A 1.1191255,1.1099671 0 0 0 -6.8492015,4.2724668 Z"
         id="path3055"
         inkscape:connector-curvature="0"
         inkscape:export-filename="new.png"
         inkscape:export-xdpi="250.55"
         inkscape:export-ydpi="250.55" />
      <path
         inkscape:connector-curvature="0"
         style="color:#000000;font-style:normal;font-variant:normal;font-weight:normal;font-stretch:normal;font-size:medium;line-height:normal;font-family:Sans;-inkscape-font-specification:Sans;text-indent:0;text-align:start;text-decoration:none;text-decoration-line:none;letter-spacing:normal;word-spacing:normal;text-transform:none;writing-mode:lr-tb;direction:ltr;baseline-shift:baseline;text-anchor:start;display:inline;overflow:visible;visibility:visible;fill:#fe5000;fill-opacity:1;fill-rule:nonzero;stroke:#7e7e7e;stroke-width:1.00010967;stroke-miterlimit:4;stroke-dasharray:none;marker:none;enable-background:accumulate;stroke-opacity:1"
         d="M -6.8523435,3.8176372 A 1.1814304,1.171762 0 0 0 -7.3044284,3.932904 l -6.1787426,2.9512758 a 1.1814304,1.171762 0 0 0 -0.639206,0.794891 l -1.523915,6.6308282 a 1.1814304,1.171762 0 0 0 0.160175,0.89893 1.1814304,1.171762 0 0 0 0.06736,0.09281 l 4.276094,5.317236 a 1.1814304,1.171762 0 0 0 0.92363,0.440858 l 6.8576188,-0.0015 a 1.1814304,1.171762 0 0 0 0.9236308,-0.44011 l 4.2745966,-5.317985 a 1.1814304,1.171762 0 0 0 0.228288,-0.990993 L 0.53894439,7.6775738 A 1.1814304,1.171762 0 0 0 -0.10026101,6.8834313 L -6.2790037,3.9321555 A 1.1814304,1.171762 0 0 0 -6.8523435,3.8176372 Z m 0.00299,0.4550789 a 1.1191255,1.1099671 0 0 1 0.5426517,0.1085303 l 5.85315169,2.7948425 A 1.1191255,1.1099671 0 0 1 0.15197811,7.9290648 L 1.598051,14.21035 a 1.1191255,1.1099671 0 0 1 -0.2163123,0.939348 l -4.0493032,5.037304 a 1.1191255,1.1099671 0 0 1 -0.8749789,0.416906 l -6.4961006,0.0015 a 1.1191255,1.1099671 0 0 1 -0.874979,-0.417652 l -4.0508,-5.036554 a 1.1191255,1.1099671 0 0 1 -0.06362,-0.08832 1.1191255,1.1099671 0 0 1 -0.151942,-0.851028 l 1.443827,-6.2812853 a 1.1191255,1.1099671 0 0 1 0.605524,-0.7529758 l 5.8524036,-2.7963395 a 1.1191255,1.1099671 0 0 1 0.4288819,-0.1085303 z"
         id="path3054-2-9" />
    </g>
    <path
       inkscape:connector-curvature="0"
       style="opacity:1;fill:#383838;fill-opacity:1;stroke:#eeeeee;stroke-width:0;stroke-miterlimit:10;stroke-dasharray:none;stroke-dashoffset:11.2364;stroke-opacity:1"
       d="M 10.000011,1.8682539 C 9.7762845,1.8610539 3.5385899,4.9633429 3.4570275,5.1224366 3.2610547,5.5047385 1.84147,12.127469 1.9249085,12.270205 c 0.048521,0.08285 1.070984,1.393637 2.2716784,2.9126 l 2.1831133,2.761577 3.5924119,0.0014 3.5931419,0.0015 2.285636,-2.888722 2.286347,-2.887898 -0.800241,-3.5477718 C 16.896756,6.6716816 16.502999,5.0424824 16.462776,5.0032351 16.350371,4.8938198 10.121264,1.8722833 10.000011,1.8683227 Z M 10.317236,3.4187702 11.787282,3.84998 10.317236,4.2811884 8.8472051,3.84998 Z M 8.8472051,4.0151219 10.223755,4.4293977 10.217247,6.365249 8.847669,5.597401 Z m 2.9400769,0 V 5.597401 l -1.369544,0.767848 -0.0065,-1.9358513 z M 8.2332164,6.6567223 9.7032779,7.0879298 8.2332164,7.5191396 6.7631867,7.0879298 Z m 3.5722136,0 1.470061,0.4312075 L 11.80543,7.5191396 10.335383,7.0879298 Z M 6.7631867,7.2530733 8.1397345,7.6666389 8.1332644,9.602493 6.7636714,8.8353525 Z m 2.9400912,0 V 8.8353525 L 8.3337012,9.602493 8.3272288,7.6666389 Z m 0.6321051,0 1.376564,0.4135656 -0.0064,1.9358541 -1.369594,-0.7671405 z m 2.940108,0 V 8.8353525 L 11.9059,9.602493 11.899509,7.6666389 Z M 7.6962284,9.7316472 c 0.4376995,0.015714 0.09882,0.4611998 0.5958431,0.7000978 0.5300806,0.254828 0.6394947,-0.385038 0.9725687,0.103734 0.3331552,0.488779 -0.2966033,0.365217 -0.2497659,0.956984 0.046904,0.591768 0.6496037,0.367867 0.3976868,0.90406 -0.2518992,0.536188 -0.4614587,-0.07793 -0.9446689,0.259005 -0.4831633,0.336945 0.00971,0.752896 -0.5748985,0.800313 C 7.3079382,13.503261 7.7288338,13.013396 7.1987682,12.758574 6.6686861,12.503742 6.5593055,13.142901 6.2261988,12.654113 5.8930922,12.165333 6.5235135,12.289597 6.4766432,11.697829 6.4297406,11.106063 5.8270404,11.329961 6.0789886,10.793773 c 0.2519004,-0.536194 0.4607472,0.07794 0.9439589,-0.259009 0.4832437,-0.336943 -0.00971,-0.7528953 0.5756261,-0.8003112 0.036388,-0.00291 0.068576,-0.00374 0.097687,-0.00291 z m 3.7780346,0.5935258 c 0.78174,0.02221 0.02362,0.764366 0.737442,1.087554 0.713957,0.323185 0.755521,-0.742909 1.292849,-0.167967 0.537295,0.574941 -0.517498,0.557285 -0.238605,1.296449 0.278877,0.739162 1.053904,0.01507 1.031893,0.805958 -0.02215,0.790855 -0.755668,0.02381 -1.075158,0.745973 -0.319504,0.722146 0.734433,0.764243 0.166037,1.30774 -0.568348,0.543497 -0.550235,-0.523473 -1.280962,-0.241364 -0.730762,0.282107 -0.01455,1.066029 -0.796781,1.043797 -0.781806,-0.02222 -0.02362,-0.764365 -0.737443,-1.087552 C 9.8596262,14.792571 9.8172998,15.85867 9.2800047,15.283726 8.7427095,14.70879 9.7975206,14.727149 9.5186268,13.987982 9.239717,13.248816 8.4647219,13.972942 8.4867179,13.182024 c 0.022155,-0.790852 0.7556346,-0.02453 1.0751723,-0.746675 0.3194569,-0.72215 -0.7344483,-0.764243 -0.1660841,-1.307743 0.5684131,-0.543497 0.5509461,0.523471 1.2816759,0.241366 0.730777,-0.282111 0.01455,-1.066031 0.796781,-1.043799 z m -3.7438444,0.414979 c -0.4749307,1.46e-4 -0.859792,0.389773 -0.8595331,0.87018 1.292e-4,0.480133 0.3848775,0.869328 0.8595331,0.869475 0.4749474,2.61e-4 0.8601322,-0.389055 0.8602613,-0.869475 2.588e-4,-0.480696 -0.3850393,-0.87044 -0.8602613,-0.87018 z m 3.6622344,0.786198 c -0.949199,-3.21e-4 -1.718762,0.7781 -1.7184555,1.738244 8.11e-5,0.959867 0.7695305,1.737862 1.7184555,1.737542 0.948633,-9.6e-5 1.717628,-0.777967 1.717709,-1.737542 3.06e-4,-0.959848 -0.768801,-1.738149 -1.717709,-1.738244 z"
       id="path1994"
       sodipodi:nodetypes="cccccccccccccccccccccccccccccccccccccccccccccccccccccccccccccccccccccccccccccccccccscccccccccccccccc" />
  </g>
</svg>
